<mxfile host="app.diagrams.net" modified="2024-04-01T13:09:58.997Z" agent="Mozilla/5.0 (Macintosh; Intel Mac OS X 10_15_7) AppleWebKit/605.1.15 (KHTML, like Gecko) Version/15.5 Safari/605.1.15" etag="j-iPeLPJ17NkiZLy-l3n" version="24.2.1" type="github">
  <diagram name="Страница — 1" id="71KRMf79bUPLbe6QW7eJ">
    <mxGraphModel dx="3434" dy="1509" grid="1" gridSize="10" guides="1" tooltips="1" connect="1" arrows="1" fold="1" page="1" pageScale="1" pageWidth="827" pageHeight="1169" math="0" shadow="0">
      <root>
        <mxCell id="0" />
        <mxCell id="1" parent="0" />
        <mxCell id="ib5mLaiR0aSDwd0X6dpf-1" value="&lt;font size=&quot;1&quot;&gt;&lt;b style=&quot;font-size: 20px;&quot;&gt;Оформление заявок&lt;/b&gt;&lt;/font&gt;" style="text;html=1;align=center;verticalAlign=middle;resizable=0;points=[];autosize=1;strokeColor=none;fillColor=none;" vertex="1" parent="1">
          <mxGeometry x="-655" y="180" width="230" height="40" as="geometry" />
        </mxCell>
        <mxCell id="ib5mLaiR0aSDwd0X6dpf-2" value="&lt;font size=&quot;1&quot;&gt;&lt;b style=&quot;font-size: 20px;&quot;&gt;Рейсы&lt;/b&gt;&lt;/font&gt;" style="text;html=1;align=center;verticalAlign=middle;resizable=0;points=[];autosize=1;strokeColor=none;fillColor=none;" vertex="1" parent="1">
          <mxGeometry x="-50" y="180" width="90" height="40" as="geometry" />
        </mxCell>
        <mxCell id="ib5mLaiR0aSDwd0X6dpf-7" value="" style="group" vertex="1" connectable="0" parent="1">
          <mxGeometry x="-760" y="257.81" width="190" height="130" as="geometry" />
        </mxCell>
        <mxCell id="ib5mLaiR0aSDwd0X6dpf-5" value="" style="shape=note;whiteSpace=wrap;html=1;backgroundOutline=1;darkOpacity=0.05;" vertex="1" parent="ib5mLaiR0aSDwd0X6dpf-7">
          <mxGeometry x="45" width="80" height="100" as="geometry" />
        </mxCell>
        <mxCell id="ib5mLaiR0aSDwd0X6dpf-6" value="&lt;font style=&quot;font-size: 16px;&quot;&gt;потребность в перевозке&lt;/font&gt;" style="text;html=1;align=center;verticalAlign=middle;resizable=0;points=[];autosize=1;strokeColor=none;fillColor=none;" vertex="1" parent="ib5mLaiR0aSDwd0X6dpf-7">
          <mxGeometry x="-20" y="100" width="210" height="30" as="geometry" />
        </mxCell>
        <mxCell id="ib5mLaiR0aSDwd0X6dpf-14" value="" style="group" vertex="1" connectable="0" parent="1">
          <mxGeometry x="-520" y="550" width="190" height="130" as="geometry" />
        </mxCell>
        <mxCell id="ib5mLaiR0aSDwd0X6dpf-15" value="" style="shape=note;whiteSpace=wrap;html=1;backgroundOutline=1;darkOpacity=0.05;" vertex="1" parent="ib5mLaiR0aSDwd0X6dpf-14">
          <mxGeometry x="45" width="80" height="100" as="geometry" />
        </mxCell>
        <mxCell id="ib5mLaiR0aSDwd0X6dpf-16" value="&lt;font style=&quot;font-size: 16px;&quot;&gt;Факт. Оказанные услуги&lt;/font&gt;" style="text;html=1;align=center;verticalAlign=middle;resizable=0;points=[];autosize=1;strokeColor=none;fillColor=none;" vertex="1" parent="ib5mLaiR0aSDwd0X6dpf-14">
          <mxGeometry x="-20" y="100" width="210" height="30" as="geometry" />
        </mxCell>
        <mxCell id="ib5mLaiR0aSDwd0X6dpf-19" value="" style="edgeStyle=orthogonalEdgeStyle;rounded=0;orthogonalLoop=1;jettySize=auto;html=1;" edge="1" parent="1" source="ib5mLaiR0aSDwd0X6dpf-5" target="ib5mLaiR0aSDwd0X6dpf-9">
          <mxGeometry relative="1" as="geometry" />
        </mxCell>
        <mxCell id="ib5mLaiR0aSDwd0X6dpf-20" value="" style="edgeStyle=orthogonalEdgeStyle;rounded=0;orthogonalLoop=1;jettySize=auto;html=1;movable=1;resizable=1;rotatable=1;deletable=1;editable=1;locked=0;connectable=1;" edge="1" parent="1" target="ib5mLaiR0aSDwd0X6dpf-15">
          <mxGeometry relative="1" as="geometry">
            <mxPoint x="-455" y="422.9999999999999" as="sourcePoint" />
            <Array as="points">
              <mxPoint x="-454" y="423" />
              <mxPoint x="-454" y="485" />
              <mxPoint x="-435" y="485" />
            </Array>
          </mxGeometry>
        </mxCell>
        <mxCell id="ib5mLaiR0aSDwd0X6dpf-26" value="" style="edgeStyle=orthogonalEdgeStyle;rounded=0;orthogonalLoop=1;jettySize=auto;html=1;entryX=0.44;entryY=-0.004;entryDx=0;entryDy=0;entryPerimeter=0;movable=1;resizable=1;rotatable=1;deletable=1;editable=1;locked=0;connectable=1;" edge="1" parent="1" target="ib5mLaiR0aSDwd0X6dpf-12">
          <mxGeometry relative="1" as="geometry">
            <mxPoint x="-450" y="485" as="sourcePoint" />
            <mxPoint x="-425" y="553" as="targetPoint" />
          </mxGeometry>
        </mxCell>
        <mxCell id="ib5mLaiR0aSDwd0X6dpf-28" value="" style="group" vertex="1" connectable="0" parent="1">
          <mxGeometry x="-320" y="257.81" width="180" height="130" as="geometry" />
        </mxCell>
        <mxCell id="ib5mLaiR0aSDwd0X6dpf-30" value="&lt;font style=&quot;font-size: 16px;&quot;&gt;Планирование рейсов&lt;/font&gt;" style="text;html=1;align=center;verticalAlign=middle;resizable=0;points=[];autosize=1;strokeColor=none;fillColor=none;" vertex="1" parent="ib5mLaiR0aSDwd0X6dpf-28">
          <mxGeometry x="-10" y="100" width="190" height="30" as="geometry" />
        </mxCell>
        <mxCell id="ib5mLaiR0aSDwd0X6dpf-37" value="" style="group;" vertex="1" connectable="0" parent="ib5mLaiR0aSDwd0X6dpf-28">
          <mxGeometry x="45" width="80" height="100" as="geometry" />
        </mxCell>
        <mxCell id="ib5mLaiR0aSDwd0X6dpf-29" value="" style="shape=note;whiteSpace=wrap;html=1;backgroundOutline=1;darkOpacity=0.05;fillColor=#fff2cc;strokeColor=#d6b656;" vertex="1" parent="ib5mLaiR0aSDwd0X6dpf-37">
          <mxGeometry width="80" height="100" as="geometry" />
        </mxCell>
        <mxCell id="ib5mLaiR0aSDwd0X6dpf-31" value="" style="shape=mxgraph.signs.transportation.truck_1;html=1;pointerEvents=1;fillColor=#000000;strokeColor=none;verticalLabelPosition=bottom;verticalAlign=top;align=center;sketch=0;flipV=0;flipH=1;" vertex="1" parent="ib5mLaiR0aSDwd0X6dpf-37">
          <mxGeometry x="20.11" y="54.75" width="39.79" height="20.5" as="geometry" />
        </mxCell>
        <mxCell id="ib5mLaiR0aSDwd0X6dpf-32" value="" style="edgeStyle=orthogonalEdgeStyle;rounded=0;orthogonalLoop=1;jettySize=auto;html=1;" edge="1" parent="1" source="ib5mLaiR0aSDwd0X6dpf-9" target="ib5mLaiR0aSDwd0X6dpf-29">
          <mxGeometry relative="1" as="geometry" />
        </mxCell>
        <mxCell id="ib5mLaiR0aSDwd0X6dpf-33" value="" style="group" vertex="1" connectable="0" parent="1">
          <mxGeometry x="-70" y="257.81" width="130" height="130" as="geometry" />
        </mxCell>
        <mxCell id="ib5mLaiR0aSDwd0X6dpf-34" value="" style="ellipse;whiteSpace=wrap;html=1;fillColor=none;strokeColor=#82b366;" vertex="1" parent="ib5mLaiR0aSDwd0X6dpf-33">
          <mxGeometry width="130" height="130" as="geometry" />
        </mxCell>
        <mxCell id="ib5mLaiR0aSDwd0X6dpf-35" value="" style="shape=note;whiteSpace=wrap;html=1;backgroundOutline=1;darkOpacity=0.05;fillColor=#d5e8d4;strokeColor=#82b366;" vertex="1" parent="ib5mLaiR0aSDwd0X6dpf-33">
          <mxGeometry x="32.5" y="24.375" width="65" height="81.25" as="geometry" />
        </mxCell>
        <mxCell id="ib5mLaiR0aSDwd0X6dpf-36" value="&lt;font style=&quot;font-size: 17px;&quot;&gt;Рейс&lt;/font&gt;" style="text;html=1;align=center;verticalAlign=middle;resizable=0;points=[];autosize=1;strokeColor=none;fillColor=none;" vertex="1" parent="1">
          <mxGeometry x="-35" y="379.38" width="60" height="30" as="geometry" />
        </mxCell>
        <mxCell id="ib5mLaiR0aSDwd0X6dpf-38" value="" style="edgeStyle=orthogonalEdgeStyle;rounded=0;orthogonalLoop=1;jettySize=auto;html=1;entryX=0;entryY=0.5;entryDx=0;entryDy=0;exitX=0;exitY=0;exitDx=80;exitDy=65;exitPerimeter=0;" edge="1" parent="1" source="ib5mLaiR0aSDwd0X6dpf-29" target="ib5mLaiR0aSDwd0X6dpf-34">
          <mxGeometry relative="1" as="geometry">
            <mxPoint x="-380" y="320" as="sourcePoint" />
            <mxPoint x="-265" y="315" as="targetPoint" />
          </mxGeometry>
        </mxCell>
        <mxCell id="ib5mLaiR0aSDwd0X6dpf-39" value="" style="group" vertex="1" connectable="0" parent="1">
          <mxGeometry x="160" y="257.81" width="215" height="130" as="geometry" />
        </mxCell>
        <mxCell id="ib5mLaiR0aSDwd0X6dpf-41" value="&lt;font style=&quot;font-size: 16px;&quot;&gt;Контроль прохождения рейсов&lt;/font&gt;" style="text;html=1;align=center;verticalAlign=middle;resizable=0;points=[];autosize=1;strokeColor=none;fillColor=none;" vertex="1" parent="ib5mLaiR0aSDwd0X6dpf-39">
          <mxGeometry x="-45" y="100" width="260" height="30" as="geometry" />
        </mxCell>
        <mxCell id="ib5mLaiR0aSDwd0X6dpf-43" value="" style="group" vertex="1" connectable="0" parent="ib5mLaiR0aSDwd0X6dpf-39">
          <mxGeometry x="45" width="80" height="100" as="geometry" />
        </mxCell>
        <mxCell id="ib5mLaiR0aSDwd0X6dpf-40" value="" style="shape=note;whiteSpace=wrap;html=1;backgroundOutline=1;darkOpacity=0.05;fillColor=#fff2cc;strokeColor=#d6b656;" vertex="1" parent="ib5mLaiR0aSDwd0X6dpf-43">
          <mxGeometry width="80" height="100" as="geometry" />
        </mxCell>
        <mxCell id="ib5mLaiR0aSDwd0X6dpf-42" value="" style="shape=mxgraph.signs.tech.mail;html=1;pointerEvents=1;fillColor=#000000;strokeColor=none;verticalLabelPosition=bottom;verticalAlign=top;align=center;sketch=0;" vertex="1" parent="ib5mLaiR0aSDwd0X6dpf-43">
          <mxGeometry x="13.600000000000001" y="45" width="52.8" height="40" as="geometry" />
        </mxCell>
        <mxCell id="ib5mLaiR0aSDwd0X6dpf-44" value="" style="edgeStyle=orthogonalEdgeStyle;rounded=0;orthogonalLoop=1;jettySize=auto;html=1;entryX=0;entryY=0.5;entryDx=0;entryDy=0;exitX=1;exitY=0.5;exitDx=0;exitDy=0;entryPerimeter=0;" edge="1" parent="1" source="ib5mLaiR0aSDwd0X6dpf-34" target="ib5mLaiR0aSDwd0X6dpf-40">
          <mxGeometry relative="1" as="geometry">
            <mxPoint x="-185" y="330" as="sourcePoint" />
            <mxPoint x="-60" y="320" as="targetPoint" />
          </mxGeometry>
        </mxCell>
        <mxCell id="ib5mLaiR0aSDwd0X6dpf-45" value="" style="group" vertex="1" connectable="0" parent="1">
          <mxGeometry x="-520" y="257.81" width="130" height="164.38" as="geometry" />
        </mxCell>
        <mxCell id="ib5mLaiR0aSDwd0X6dpf-10" value="" style="group" vertex="1" connectable="0" parent="ib5mLaiR0aSDwd0X6dpf-45">
          <mxGeometry width="130" height="130" as="geometry" />
        </mxCell>
        <mxCell id="ib5mLaiR0aSDwd0X6dpf-9" value="" style="ellipse;whiteSpace=wrap;html=1;fillColor=none;strokeColor=#82b366;" vertex="1" parent="ib5mLaiR0aSDwd0X6dpf-10">
          <mxGeometry width="130" height="130" as="geometry" />
        </mxCell>
        <mxCell id="ib5mLaiR0aSDwd0X6dpf-8" value="" style="shape=note;whiteSpace=wrap;html=1;backgroundOutline=1;darkOpacity=0.05;fillColor=#d5e8d4;strokeColor=#82b366;" vertex="1" parent="ib5mLaiR0aSDwd0X6dpf-10">
          <mxGeometry x="32.5" y="24.375" width="65" height="81.25" as="geometry" />
        </mxCell>
        <mxCell id="ib5mLaiR0aSDwd0X6dpf-24" value="Задание на перевозку грузов&amp;nbsp;" style="text;html=1;align=center;verticalAlign=middle;whiteSpace=wrap;rounded=0;" vertex="1" parent="ib5mLaiR0aSDwd0X6dpf-45">
          <mxGeometry x="24.375" y="140.005" width="81.25" height="24.375" as="geometry" />
        </mxCell>
        <mxCell id="ib5mLaiR0aSDwd0X6dpf-46" value="" style="group" vertex="1" connectable="0" parent="1">
          <mxGeometry x="-320" y="550" width="170" height="130" as="geometry" />
        </mxCell>
        <mxCell id="ib5mLaiR0aSDwd0X6dpf-47" value="" style="shape=note;whiteSpace=wrap;html=1;backgroundOutline=1;darkOpacity=0.05;" vertex="1" parent="ib5mLaiR0aSDwd0X6dpf-46">
          <mxGeometry x="45" width="80" height="100" as="geometry" />
        </mxCell>
        <mxCell id="ib5mLaiR0aSDwd0X6dpf-48" value="&lt;font style=&quot;font-size: 16px;&quot;&gt;Событие&lt;/font&gt;" style="text;html=1;align=center;verticalAlign=middle;resizable=0;points=[];autosize=1;strokeColor=none;fillColor=none;" vertex="1" parent="ib5mLaiR0aSDwd0X6dpf-46">
          <mxGeometry x="40" y="100" width="90" height="30" as="geometry" />
        </mxCell>
        <mxCell id="ib5mLaiR0aSDwd0X6dpf-49" value="" style="group" vertex="1" connectable="0" parent="1">
          <mxGeometry x="-90" y="550" width="185" height="130" as="geometry" />
        </mxCell>
        <mxCell id="ib5mLaiR0aSDwd0X6dpf-50" value="" style="shape=note;whiteSpace=wrap;html=1;backgroundOutline=1;darkOpacity=0.05;" vertex="1" parent="ib5mLaiR0aSDwd0X6dpf-49">
          <mxGeometry x="45" width="80" height="100" as="geometry" />
        </mxCell>
        <mxCell id="ib5mLaiR0aSDwd0X6dpf-51" value="&lt;font style=&quot;font-size: 16px;&quot;&gt;Факт. затраты по рейсу&lt;/font&gt;" style="text;html=1;align=center;verticalAlign=middle;resizable=0;points=[];autosize=1;strokeColor=none;fillColor=none;" vertex="1" parent="ib5mLaiR0aSDwd0X6dpf-49">
          <mxGeometry x="-15" y="100" width="200" height="30" as="geometry" />
        </mxCell>
        <mxCell id="ib5mLaiR0aSDwd0X6dpf-52" value="" style="group" vertex="1" connectable="0" parent="1">
          <mxGeometry x="160" y="550" width="215" height="130" as="geometry" />
        </mxCell>
        <mxCell id="ib5mLaiR0aSDwd0X6dpf-53" value="" style="shape=note;whiteSpace=wrap;html=1;backgroundOutline=1;darkOpacity=0.05;" vertex="1" parent="ib5mLaiR0aSDwd0X6dpf-52">
          <mxGeometry x="45" width="80" height="100" as="geometry" />
        </mxCell>
        <mxCell id="ib5mLaiR0aSDwd0X6dpf-54" value="&lt;font style=&quot;font-size: 16px;&quot;&gt;Прохождение точки маршрута&lt;/font&gt;" style="text;html=1;align=center;verticalAlign=middle;resizable=0;points=[];autosize=1;strokeColor=none;fillColor=none;" vertex="1" parent="ib5mLaiR0aSDwd0X6dpf-52">
          <mxGeometry x="-45" y="100" width="260" height="30" as="geometry" />
        </mxCell>
        <mxCell id="ib5mLaiR0aSDwd0X6dpf-58" value="" style="group" vertex="1" connectable="0" parent="1">
          <mxGeometry x="-50" y="815" width="200" height="130" as="geometry" />
        </mxCell>
        <mxCell id="ib5mLaiR0aSDwd0X6dpf-59" value="" style="shape=note;whiteSpace=wrap;html=1;backgroundOutline=1;darkOpacity=0.05;" vertex="1" parent="ib5mLaiR0aSDwd0X6dpf-58">
          <mxGeometry x="45" width="80" height="100" as="geometry" />
        </mxCell>
        <mxCell id="ib5mLaiR0aSDwd0X6dpf-60" value="&lt;font style=&quot;font-size: 16px;&quot;&gt;Прохождение заявки на ТС&lt;/font&gt;" style="text;html=1;align=center;verticalAlign=middle;resizable=0;points=[];autosize=1;strokeColor=none;fillColor=none;" vertex="1" parent="ib5mLaiR0aSDwd0X6dpf-58">
          <mxGeometry x="-30" y="100" width="230" height="30" as="geometry" />
        </mxCell>
        <mxCell id="ib5mLaiR0aSDwd0X6dpf-61" value="" style="group;" vertex="1" connectable="0" parent="1">
          <mxGeometry x="-291" y="815" width="170" height="130" as="geometry" />
        </mxCell>
        <mxCell id="ib5mLaiR0aSDwd0X6dpf-62" value="" style="shape=note;whiteSpace=wrap;html=1;backgroundOutline=1;darkOpacity=0.05;fillColor=#d5e8d4;strokeColor=#82b366;" vertex="1" parent="ib5mLaiR0aSDwd0X6dpf-61">
          <mxGeometry x="45" width="80" height="100" as="geometry" />
        </mxCell>
        <mxCell id="ib5mLaiR0aSDwd0X6dpf-63" value="&lt;font style=&quot;font-size: 16px;&quot;&gt;Заявка на ТС&lt;/font&gt;" style="text;html=1;align=center;verticalAlign=middle;resizable=0;points=[];autosize=1;strokeColor=none;fillColor=none;" vertex="1" parent="ib5mLaiR0aSDwd0X6dpf-61">
          <mxGeometry x="20" y="100" width="130" height="30" as="geometry" />
        </mxCell>
        <mxCell id="ib5mLaiR0aSDwd0X6dpf-64" value="" style="group" vertex="1" connectable="0" parent="1">
          <mxGeometry x="-750" y="550" width="195" height="130" as="geometry" />
        </mxCell>
        <mxCell id="ib5mLaiR0aSDwd0X6dpf-12" value="" style="shape=note;whiteSpace=wrap;html=1;backgroundOutline=1;darkOpacity=0.05;" vertex="1" parent="ib5mLaiR0aSDwd0X6dpf-64">
          <mxGeometry x="45" width="80" height="100" as="geometry" />
        </mxCell>
        <mxCell id="ib5mLaiR0aSDwd0X6dpf-13" value="&lt;font style=&quot;font-size: 16px;&quot;&gt;Измененения груза в пути&lt;/font&gt;" style="text;html=1;align=center;verticalAlign=middle;resizable=0;points=[];autosize=1;strokeColor=none;fillColor=none;" vertex="1" parent="ib5mLaiR0aSDwd0X6dpf-64">
          <mxGeometry x="-25" y="100" width="220" height="30" as="geometry" />
        </mxCell>
        <mxCell id="ib5mLaiR0aSDwd0X6dpf-67" value="" style="edgeStyle=orthogonalEdgeStyle;rounded=0;orthogonalLoop=1;jettySize=auto;html=1;entryX=0;entryY=0;entryDx=25;entryDy=0;entryPerimeter=0;" edge="1" parent="1" source="ib5mLaiR0aSDwd0X6dpf-36" target="ib5mLaiR0aSDwd0X6dpf-62">
          <mxGeometry relative="1" as="geometry">
            <mxPoint x="-70" y="415" as="sourcePoint" />
            <mxPoint x="-10" y="560" as="targetPoint" />
            <Array as="points">
              <mxPoint x="-70" y="394" />
              <mxPoint x="-70" y="525" />
              <mxPoint x="-130" y="525" />
              <mxPoint x="-130" y="725" />
              <mxPoint x="-221" y="725" />
            </Array>
          </mxGeometry>
        </mxCell>
        <mxCell id="ib5mLaiR0aSDwd0X6dpf-71" style="edgeStyle=orthogonalEdgeStyle;rounded=0;orthogonalLoop=1;jettySize=auto;html=1;entryX=0;entryY=0.5;entryDx=0;entryDy=0;entryPerimeter=0;" edge="1" parent="1" source="ib5mLaiR0aSDwd0X6dpf-62" target="ib5mLaiR0aSDwd0X6dpf-59">
          <mxGeometry relative="1" as="geometry" />
        </mxCell>
        <mxCell id="ib5mLaiR0aSDwd0X6dpf-72" style="edgeStyle=orthogonalEdgeStyle;rounded=0;orthogonalLoop=1;jettySize=auto;html=1;entryX=0.5;entryY=0;entryDx=0;entryDy=0;entryPerimeter=0;" edge="1" parent="1" source="ib5mLaiR0aSDwd0X6dpf-41" target="ib5mLaiR0aSDwd0X6dpf-53">
          <mxGeometry relative="1" as="geometry" />
        </mxCell>
        <mxCell id="ib5mLaiR0aSDwd0X6dpf-73" style="edgeStyle=orthogonalEdgeStyle;rounded=0;orthogonalLoop=1;jettySize=auto;html=1;entryX=0.5;entryY=0;entryDx=0;entryDy=0;entryPerimeter=0;" edge="1" parent="1" source="ib5mLaiR0aSDwd0X6dpf-36" target="ib5mLaiR0aSDwd0X6dpf-50">
          <mxGeometry relative="1" as="geometry" />
        </mxCell>
        <mxCell id="ib5mLaiR0aSDwd0X6dpf-74" style="edgeStyle=orthogonalEdgeStyle;rounded=0;orthogonalLoop=1;jettySize=auto;html=1;entryX=0.5;entryY=0;entryDx=0;entryDy=0;entryPerimeter=0;" edge="1" parent="1" source="ib5mLaiR0aSDwd0X6dpf-36" target="ib5mLaiR0aSDwd0X6dpf-47">
          <mxGeometry relative="1" as="geometry" />
        </mxCell>
        <mxCell id="ib5mLaiR0aSDwd0X6dpf-77" value="" style="group" vertex="1" connectable="0" parent="1">
          <mxGeometry x="410" y="255" width="232.5" height="352" as="geometry" />
        </mxCell>
        <mxCell id="ib5mLaiR0aSDwd0X6dpf-78" value="" style="shape=note;whiteSpace=wrap;html=1;backgroundOutline=1;darkOpacity=0.05;fillColor=#fff2cc;strokeColor=#d6b656;" vertex="1" parent="ib5mLaiR0aSDwd0X6dpf-77">
          <mxGeometry x="42.5" y="222" width="80" height="100" as="geometry" />
        </mxCell>
        <mxCell id="ib5mLaiR0aSDwd0X6dpf-79" value="&lt;font style=&quot;font-size: 16px;&quot;&gt;факт. маршруты&lt;/font&gt;" style="text;html=1;align=center;verticalAlign=middle;resizable=0;points=[];autosize=1;strokeColor=none;fillColor=none;" vertex="1" parent="ib5mLaiR0aSDwd0X6dpf-77">
          <mxGeometry x="7.5" y="322" width="150" height="30" as="geometry" />
        </mxCell>
        <mxCell id="ib5mLaiR0aSDwd0X6dpf-75" value="&lt;font style=&quot;font-size: 20px;&quot;&gt;&lt;b&gt;Спутниковый мониторинг&lt;/b&gt;&lt;/font&gt;" style="text;html=1;align=center;verticalAlign=middle;resizable=0;points=[];autosize=1;strokeColor=none;fillColor=none;" vertex="1" parent="ib5mLaiR0aSDwd0X6dpf-77">
          <mxGeometry x="-47.5" y="155" width="280" height="40" as="geometry" />
        </mxCell>
        <mxCell id="ib5mLaiR0aSDwd0X6dpf-89" style="edgeStyle=orthogonalEdgeStyle;rounded=0;orthogonalLoop=1;jettySize=auto;html=1;entryX=0;entryY=0;entryDx=80;entryDy=65;entryPerimeter=0;" edge="1" parent="1" source="ib5mLaiR0aSDwd0X6dpf-78" target="ib5mLaiR0aSDwd0X6dpf-53">
          <mxGeometry relative="1" as="geometry" />
        </mxCell>
        <mxCell id="ib5mLaiR0aSDwd0X6dpf-90" style="edgeStyle=orthogonalEdgeStyle;rounded=0;orthogonalLoop=1;jettySize=auto;html=1;entryX=0;entryY=0.5;entryDx=0;entryDy=0;entryPerimeter=0;" edge="1" parent="1" source="ib5mLaiR0aSDwd0X6dpf-8" target="ib5mLaiR0aSDwd0X6dpf-47">
          <mxGeometry relative="1" as="geometry">
            <Array as="points">
              <mxPoint x="-350" y="323" />
              <mxPoint x="-350" y="600" />
            </Array>
          </mxGeometry>
        </mxCell>
        <mxCell id="ib5mLaiR0aSDwd0X6dpf-91" style="edgeStyle=orthogonalEdgeStyle;rounded=0;orthogonalLoop=1;jettySize=auto;html=1;entryX=0;entryY=0.5;entryDx=0;entryDy=0;entryPerimeter=0;" edge="1" parent="1" target="ib5mLaiR0aSDwd0X6dpf-62">
          <mxGeometry relative="1" as="geometry">
            <mxPoint x="-350" y="595" as="sourcePoint" />
            <Array as="points">
              <mxPoint x="-350" y="865" />
            </Array>
          </mxGeometry>
        </mxCell>
      </root>
    </mxGraphModel>
  </diagram>
</mxfile>
